# xmcd CD database file
#
# Track frame offsets:
#	150
#	26705
#	51773
#	73010
#	104510
#	136515
#	174243
#	204473
#	238798
#	270600
#
# Disc length: 4006 seconds
#
# Revision: 0
# Processed by: cddbd v1.5.2PL0 Copyright (c) Steve Scherf et al.
# Submitted via: CDex 1.51
#
DISCID=880fa40a
DTITLE=FOUR of a KIND - FOUR of a KIND II
DYEAR=2004
DGENRE=Jazz
TTITLE0=GET UP 'N' GO
TTITLE1=DUBAI
TTITLE2=LONG WRONG WAY
TTITLE3=BOLERO
TTITLE4=UPWARD MOBILITY
TTITLE5=CHOUETTE
TTITLE6=SUMMER SOFT
TTITLE7=SLOW EMOTION
TTITLE8=KEEP THE FAITH
TTITLE9=JERASH
EXTD=YEAR: 2004
EXTT0=
EXTT1=
EXTT2=
EXTT3=
EXTT4=
EXTT5=
EXTT6=
EXTT7=
EXTT8=
EXTT9=
PLAYORDER=
